<svg width="83" height="83" viewBox="0 0 83 83" fill="none" xmlns="http://www.w3.org/2000/svg">
<path fill-rule="evenodd" clip-rule="evenodd" d="M18.0009 60.9531C18.0009 61.4913 17.8949 62.0242 17.689 62.5214C17.483 63.0186 17.1812 63.4704 16.8006 63.8509C16.4201 64.2315 15.9683 64.5333 15.4711 64.7393C14.9739 64.9452 14.441 65.0512 13.9028 65.0512C13.3646 65.0512 12.8317 64.9452 12.3345 64.7393C11.8373 64.5333 11.3855 64.2315 11.005 63.8509C10.6245 63.4704 10.3226 63.0186 10.1166 62.5214C9.91069 62.0242 9.80469 61.4913 9.80469 60.9531C9.80469 59.8662 10.2365 58.8238 11.005 58.0553C11.7735 57.2867 12.8159 56.855 13.9028 56.855C14.9897 56.855 16.0321 57.2867 16.8006 58.0553C17.5692 58.8238 18.0009 59.8662 18.0009 60.9531ZM73.1441 60.9531C73.1441 62.04 72.7123 63.0824 71.9437 63.8509C71.1752 64.6195 70.1328 65.0512 69.0459 65.0512C67.959 65.0512 66.9167 64.6195 66.1481 63.8509C65.3796 63.0824 64.9478 62.04 64.9478 60.9531C64.9478 59.8662 65.3796 58.8238 66.1481 58.0553C66.9167 57.2867 67.959 56.855 69.0459 56.855C70.1328 56.855 71.1752 57.2867 71.9437 58.0553C72.7123 58.8238 73.1441 59.8662 73.1441 60.9531Z" fill="#00A6ED"/>
<path fill-rule="evenodd" clip-rule="evenodd" d="M26.5859 34.4191L34.834 45.4944L17.7412 47.4656L23.24 34.7822C21.9171 34.2634 20.9834 32.9666 20.9834 31.4622C20.9834 29.4909 22.5915 27.8828 24.5628 27.8828C25.3256 27.8869 26.0673 28.134 26.6801 28.5883C27.293 29.0426 27.745 29.6805 27.9705 30.4093C28.1961 31.138 28.1835 31.9197 27.9345 32.6408C27.6855 33.3619 27.2131 33.9848 26.5859 34.4191ZM59.6821 34.7822L65.1809 47.4656L48.0881 45.4944L56.3362 34.4191C55.4025 33.7706 54.78 32.6813 54.78 31.4622C54.78 29.4909 56.3881 27.8828 58.3593 27.8828C60.3306 27.8828 61.9387 29.4909 61.9387 31.4622C61.9387 32.9666 61.005 34.2634 59.6821 34.7822Z" fill="#E19747"/>
<path d="M77.7606 33.9523C77.7606 31.981 76.1525 30.3729 74.1812 30.3729C72.21 30.3729 70.6019 31.981 70.6019 33.9523C70.6019 34.6785 70.8353 35.3789 71.1984 35.9235C70.6278 35.9235 70.0572 36.0532 69.5125 36.4164L59.3191 43.0045C57.9703 43.8604 56.2066 43.5492 55.2469 42.2523L43.9122 26.8714C43.8312 26.7478 43.7353 26.6345 43.6269 26.5342C44.4945 26.0565 45.1786 25.3039 45.5716 24.3947C45.9645 23.4856 46.0439 22.4716 45.7973 21.5124C45.5507 20.5531 44.9921 19.7031 44.2094 19.0962C43.4268 18.4893 42.4645 18.1599 41.4741 18.1599C40.4836 18.1599 39.5213 18.4893 38.7387 19.0962C37.956 19.7031 37.3974 20.5531 37.1508 21.5124C36.9042 22.4716 36.9836 23.4856 37.3766 24.3947C37.7695 25.3039 38.4536 26.0565 39.3212 26.5342C39.2175 26.6379 39.1137 26.7417 39.0359 26.8714L27.7012 42.2523C26.7675 43.5492 24.9778 43.8604 23.6291 43.0045L13.4356 36.4164C12.8909 36.0532 12.3203 35.9235 11.7497 35.9235C12.1388 35.3529 12.3463 34.6785 12.3463 33.9523C12.3463 31.981 10.7381 30.3729 8.76688 30.3729C6.79563 30.3729 5.1875 31.981 5.1875 33.9523C5.1875 35.9235 6.79563 37.5317 8.76688 37.5317C8.89656 37.5317 9.02625 37.5317 9.13 37.5057C8.79281 38.1023 8.66313 38.8026 8.81875 39.5548L15.5625 73.1957C16.0553 75.6079 18.1822 77.3457 20.6462 77.3457H62.3019C64.7659 77.3457 66.8928 75.6079 67.3856 73.1957L74.1294 39.5548C74.285 38.8026 74.1294 38.0764 73.8181 37.5057C73.9478 37.5057 74.0775 37.5317 74.1812 37.5317C76.1525 37.5317 77.7606 35.9235 77.7606 33.9523Z" fill="#FFB02E"/>
<path d="M41.4736 67.4375C43.1934 67.4375 44.8427 66.7543 46.0588 65.5383C47.2748 64.3222 47.958 62.6729 47.958 60.9531C47.958 59.2334 47.2748 57.584 46.0588 56.368C44.8427 55.1519 43.1934 54.4688 41.4736 54.4688C39.7539 54.4688 38.1045 55.1519 36.8885 56.368C35.6724 57.584 34.9893 59.2334 34.9893 60.9531C34.9893 62.6729 35.6724 64.3222 36.8885 65.5383C38.1045 66.7543 39.7539 67.4375 41.4736 67.4375Z" fill="#00A6ED"/>
<path fill-rule="evenodd" clip-rule="evenodd" d="M28.5312 60.9531C28.5312 61.985 28.1213 62.9746 27.3917 63.7042C26.6621 64.4338 25.6725 64.8438 24.6406 64.8438C23.6088 64.8438 22.6192 64.4338 21.8895 63.7042C21.1599 62.9746 20.75 61.985 20.75 60.9531C20.75 59.9213 21.1599 58.9317 21.8895 58.202C22.6192 57.4724 23.6088 57.0625 24.6406 57.0625C25.6725 57.0625 26.6621 57.4724 27.3917 58.202C28.1213 58.9317 28.5312 59.9213 28.5312 60.9531ZM62.25 60.9531C62.25 61.985 61.8401 62.9746 61.1105 63.7042C60.3808 64.4338 59.3912 64.8438 58.3594 64.8438C57.3275 64.8438 56.3379 64.4338 55.6083 63.7042C54.8787 62.9746 54.4688 61.985 54.4688 60.9531C54.4688 59.9213 54.8787 58.9317 55.6083 58.202C56.3379 57.4724 57.3275 57.0625 58.3594 57.0625C59.3912 57.0625 60.3808 57.4724 61.1105 58.202C61.8401 58.9317 62.25 59.9213 62.25 60.9531Z" fill="#F8312F"/>
</svg>
