<svg width="800" height="800" viewBox="0 0 800 800" fill="none" xmlns="http://www.w3.org/2000/svg">
<g clip-path="url(#clip0_901_82)">
<path d="M88.2453 404.949C49.3764 404.949 17.8701 373.426 17.8701 334.557C17.8701 315.113 25.7514 297.529 38.4748 284.786C51.2171 272.063 68.8187 264.182 88.2453 264.182H103.042H128.186C144.716 264.182 160.3 269.989 172.63 280.086C180.386 286.413 186.872 294.436 191.466 303.765C210.927 343.205 204.636 403.34 285.483 442.227C288.039 443.674 290.719 444.962 293.543 446.07L298.778 448.124L299.064 448.232L390.508 483.938C394.154 536.693 431.201 583.443 485.277 596.935C544.859 611.821 604.993 590.467 642.415 546.826C752.659 611.624 782.128 674.012 782.128 674.012H208.48L244.222 601.654C244.222 601.654 125.095 557.621 97.6828 404.951L88.2453 404.949Z" fill="url(#paint0_linear_901_82)"/>
<path d="M285.485 442.229C256.177 425.644 244.865 387.669 262.593 357.79C316.383 267.043 425.145 218.255 532.745 245.114C637.789 271.349 701.659 377.769 675.425 482.795C669.312 507.242 657.786 528.901 642.417 546.826C604.995 590.467 544.86 611.821 485.279 596.935C431.202 583.443 394.155 536.693 390.51 483.938L299.066 448.232L298.78 448.124C294.099 446.213 289.666 444.265 285.485 442.229Z" fill="#A3875E"/>
<path d="M390.509 501.815C388.346 501.815 386.149 501.42 384.013 500.585L292.569 464.882C283.376 461.292 278.832 450.929 282.422 441.735C286.012 432.538 296.374 428.004 305.569 431.587L397.013 467.293C406.207 470.884 410.751 481.246 407.16 490.44C404.402 497.498 397.652 501.815 390.509 501.815Z" fill="url(#paint1_linear_901_82)"/>
<path d="M298.777 466.002C296.605 466.002 294.399 465.604 292.253 464.763L287.017 462.71C283.472 461.318 279.992 459.66 276.672 457.777C258.18 447.313 244.419 429.48 238.93 408.858C233.455 388.29 236.397 366.915 247.222 348.671C275.471 301.015 319.247 262.741 370.483 240.908C423.454 218.336 481.058 213.791 537.071 227.775C567.232 235.308 594.738 248.902 618.824 268.179C626.532 274.346 627.779 285.591 621.612 293.297C615.446 301.005 604.199 302.252 596.493 296.085C576.449 280.043 553.545 268.727 528.413 262.452C431.71 238.308 328.724 281.263 277.964 366.899C272.08 376.819 270.483 388.451 273.467 399.662C276.502 411.06 284.089 420.904 294.283 426.673C296.149 427.73 298.092 428.657 300.072 429.434L305.307 431.485C314.494 435.091 319.021 445.46 315.416 454.649C312.653 461.696 305.911 465.999 298.777 466.002Z" fill="black"/>
<path d="M639.041 331.593C633.758 331.593 628.527 329.263 625.001 324.793C624.564 324.237 624.123 323.688 623.681 323.14C617.469 315.47 618.655 304.216 626.325 298.007C633.994 291.798 645.245 292.979 651.458 300.651C651.995 301.313 652.53 301.982 653.059 302.652C659.175 310.401 657.85 321.638 650.103 327.752C646.819 330.338 642.916 331.593 639.041 331.593Z" fill="black"/>
<path d="M523.754 619.567C509.549 619.567 495.194 617.831 480.948 614.273C420.486 599.189 376.977 547.304 372.683 485.17C371.64 470.199 372.971 455.165 376.641 440.498C384.285 409.862 403.408 384.032 430.488 367.776C457.562 351.521 489.348 346.787 519.991 354.444C545.429 360.793 566.873 376.671 580.371 399.149C593.87 421.627 597.804 448.016 591.451 473.452C586.137 494.731 572.854 512.668 554.046 523.96C535.238 535.249 513.162 538.545 491.885 533.231C454.854 523.971 432.24 486.304 441.472 449.259C443.858 439.682 453.563 433.857 463.133 436.24C472.71 438.626 478.54 448.324 476.152 457.901C471.683 475.838 482.627 494.074 500.548 498.557C512.555 501.552 525.026 499.699 535.649 493.32C546.271 486.943 553.776 476.812 556.774 464.796C560.813 448.623 558.312 431.846 549.729 417.551C541.146 403.255 527.509 393.16 511.33 389.123C489.952 383.784 467.774 387.082 448.885 398.423C429.994 409.765 416.652 427.784 411.318 449.166C408.558 460.195 407.558 471.471 408.341 482.699C411.565 529.34 444.222 568.278 489.609 579.601C541.007 592.437 594.356 575.425 628.856 535.196C642.954 518.751 652.792 499.663 658.09 478.463C668.254 437.765 663.71 394.634 645.287 357.019C640.945 348.155 644.612 337.451 653.476 333.11C662.343 328.763 673.043 332.437 677.385 341.299C699.51 386.471 704.973 438.262 692.765 487.132C686.104 513.767 673.732 537.765 655.987 558.464C622.182 597.878 573.966 619.564 523.754 619.567Z" fill="black"/>
<path d="M782.131 691.883H208.48C202.302 691.883 196.561 688.691 193.3 683.444C190.039 678.195 189.721 671.636 192.457 666.097L220.16 610.009C207.257 603.078 188.741 591.475 169.23 573.792C138.788 546.206 100.05 498.065 83.0377 422.667C36.7954 419.962 0 381.477 0 334.557C0 310.999 9.17346 288.84 25.8329 272.16C42.5298 255.487 64.6892 246.312 88.2471 246.312H128.188C148.441 246.312 168.246 253.397 183.955 266.263C193.891 274.368 201.824 284.338 207.502 295.876C213.135 307.293 216.627 319.368 220.324 332.155C230.05 365.791 240.108 400.574 293.232 426.126C296.907 427.915 300.838 429.66 305.322 431.496L305.387 431.521C314.618 435.01 319.274 445.324 315.783 454.557C312.293 463.788 301.983 468.448 292.747 464.953L292.462 464.843C292.315 464.79 292.171 464.731 292.027 464.673C286.722 462.507 282.022 460.421 277.658 458.296C210.213 425.857 196.78 379.406 185.988 342.085C182.744 330.866 179.68 320.268 175.441 311.676C172.036 304.762 167.294 298.798 161.336 293.937C151.969 286.266 140.207 282.054 128.188 282.054H88.2455C74.2251 282.054 61.0361 287.516 51.1048 297.433C41.2032 307.348 35.7407 320.538 35.7407 334.559C35.7407 363.518 59.2939 387.081 88.2455 387.081H97.6814C106.333 387.081 113.742 393.277 115.272 401.792C140.586 542.771 249.322 584.486 250.419 584.892C255.169 586.647 258.951 590.337 260.826 595.043C262.699 599.748 262.49 605.028 260.244 609.568L237.24 656.144H748.305C729.803 633.44 694.712 598.348 633.698 562.432C628.233 559.375 624.536 553.532 624.536 546.828C624.536 536.959 632.529 528.957 642.398 528.957H642.418C645.603 528.957 648.728 529.807 651.473 531.421C765.159 598.245 796.989 663.63 798.289 666.381C800.903 671.919 800.503 678.406 797.225 683.578C793.948 688.748 788.253 691.883 782.131 691.883Z" fill="url(#paint2_linear_901_82)"/>
<path d="M172.632 297.958C162.762 297.958 154.762 289.955 154.762 280.088V125.988C154.762 116.119 162.762 108.117 172.632 108.117C182.502 108.117 190.502 116.12 190.502 125.988V280.086C190.502 289.957 182.502 297.958 172.632 297.958Z" fill="black"/>
<path d="M103.042 282.053C93.1719 282.053 85.1719 274.05 85.1719 264.183V125.988C85.1719 116.119 93.1719 108.117 103.042 108.117C112.913 108.117 120.913 116.12 120.913 125.988V264.182C120.913 274.052 112.913 282.053 103.042 282.053Z" fill="black"/>
<path d="M127.686 349.587C117.815 349.587 109.815 341.584 109.815 331.716V325.015C109.815 315.146 117.815 307.145 127.686 307.145C137.556 307.145 145.556 315.148 145.556 325.015V331.716C145.556 341.585 137.556 349.587 127.686 349.587Z" fill="black"/>
</g>
<defs>
<linearGradient id="paint0_linear_901_82" x1="133.477" y1="615.683" x2="501.932" y2="-54.0963" gradientUnits="userSpaceOnUse">
<stop stop-color="#FFD469"/>
<stop offset="1" stop-color="white"/>
</linearGradient>
<linearGradient id="paint1_linear_901_82" x1="300.434" y1="491.645" x2="366.242" y2="377.454" gradientUnits="userSpaceOnUse">
<stop stop-color="#FFD469"/>
<stop offset="1" stop-color="white"/>
</linearGradient>
<linearGradient id="paint2_linear_901_82" x1="121.013" y1="628.467" x2="529.601" y2="-86.6383" gradientUnits="userSpaceOnUse">
<stop stop-color="#FFD469"/>
<stop offset="1" stop-color="white"/>
</linearGradient>
<clipPath id="clip0_901_82">
<rect width="800" height="800" fill="white"/>
</clipPath>
</defs>
</svg>
