<svg width="800" height="513" viewBox="0 0 800 513" fill="none" xmlns="http://www.w3.org/2000/svg">
<path d="M782.876 512.999C776.008 512.999 769.711 509.07 767.012 502.623C765.032 497.944 715.55 386.953 530.544 364.971C492.008 360.293 445.854 357.893 389.804 357.474V495.815C389.804 502.203 386.355 507.991 380.687 511.05C375.049 513.989 368.301 513.569 363.053 510.06L7.61733 270.804C2.81901 267.595 0 262.197 0 256.529C0 250.801 2.81901 245.583 7.61733 242.224L363.203 2.93765C368.451 -0.691078 375.139 -0.930988 380.837 2.06796C386.535 5.12689 389.924 10.9149 389.924 17.1227V145.868C467.236 155.944 800 215.743 800 495.965C800 504.092 794.272 511.2 786.235 512.819C785.125 512.999 783.956 512.999 782.876 512.999Z" fill="url(#paint0_linear_901_60)"/>
<defs>
<linearGradient id="paint0_linear_901_60" x1="121.013" y1="439.989" x2="622.447" y2="-322.259" gradientUnits="userSpaceOnUse">
<stop stop-color="#FFD469"/>
<stop offset="1" stop-color="white"/>
</linearGradient>
</defs>
</svg>
