<svg width="387" height="425" viewBox="0 0 387 425" fill="none" xmlns="http://www.w3.org/2000/svg">
<rect x="143" y="73" width="100" height="100" fill="#EFEFEF"/>
<path d="M88.6048 268.919C82.0593 278.206 78.1302 289.801 78.1302 302.434C78.1302 332.757 100.547 357.348 128.231 357.348C155.903 357.348 178.344 332.757 178.344 302.434C178.344 297.246 177.634 292.265 176.415 287.492C182.167 287.829 187.848 288.064 193.364 288.064C198.891 288.064 204.572 287.83 210.336 287.492C209.105 292.265 208.407 297.246 208.407 302.434C208.419 332.757 230.835 357.348 258.519 357.348C286.191 357.348 308.632 332.757 308.632 302.434C308.632 289.801 304.691 278.206 298.145 268.919C322.326 259.27 342.944 245.963 355.052 228.661H31.6982C43.7946 245.963 64.412 259.282 88.6048 268.919ZM229.309 285.832C246.388 283.757 263.703 280.229 280.073 275.21C280.664 275.768 281.245 276.312 281.801 276.909C287.778 283.472 291.447 292.447 291.447 302.434C291.447 312.421 287.777 321.396 281.801 327.945C275.812 334.496 267.633 338.516 258.52 338.516C249.394 338.516 241.228 334.495 235.227 327.945C229.262 321.395 225.593 312.421 225.581 302.434C225.58 296.416 226.942 290.787 229.309 285.832ZM104.938 276.909C105.494 276.312 106.074 275.768 106.666 275.21C123.034 280.229 140.362 283.757 157.453 285.832C159.808 290.787 161.158 296.416 161.158 302.434C161.158 312.421 157.489 321.396 151.512 327.945C145.536 334.495 137.356 338.516 128.231 338.516C119.107 338.516 110.939 334.495 104.939 327.945C98.9733 321.395 95.3162 312.421 95.304 302.434C95.3154 292.447 98.9726 283.472 104.938 276.909Z" fill="url(#paint0_linear_901_99)"/>
<path d="M193.375 370.617L128.539 384.923L118.928 425L193.375 402.095L267.823 425L258.224 384.923L193.375 370.617Z" fill="url(#paint1_linear_901_99)"/>
<path d="M366.593 100.608C331.949 78.6756 268.426 0 193.364 0C118.302 0 54.7898 78.6756 20.1466 100.608C-23.2432 128.091 14.3708 166.431 31.6984 183.486H355.053C372.369 166.431 409.983 128.092 366.593 100.608ZM193.375 153.383C183.883 153.383 176.189 144.952 176.189 134.55C176.189 124.161 183.882 115.73 193.375 115.73C202.856 115.73 210.549 124.161 210.549 134.55C210.549 144.952 202.856 153.383 193.375 153.383Z" fill="url(#paint2_linear_901_99)"/>
<defs>
<linearGradient id="paint0_linear_901_99" x1="80.6108" y1="339.033" x2="176.48" y2="104.215" gradientUnits="userSpaceOnUse">
<stop stop-color="#FFD469"/>
<stop offset="1" stop-color="white"/>
</linearGradient>
<linearGradient id="paint1_linear_901_99" x1="141.451" y1="417.26" x2="179.49" y2="315.738" gradientUnits="userSpaceOnUse">
<stop stop-color="#FFD469"/>
<stop offset="1" stop-color="white"/>
</linearGradient>
<linearGradient id="paint2_linear_901_99" x1="58.5008" y1="157.372" x2="212.208" y2="-158.434" gradientUnits="userSpaceOnUse">
<stop stop-color="#FFD469"/>
<stop offset="1" stop-color="white"/>
</linearGradient>
</defs>
</svg>
