<svg width="800" height="800" viewBox="0 0 800 800" fill="none" xmlns="http://www.w3.org/2000/svg">
<path d="M441.367 594.813C451.13 604.577 466.96 604.577 476.723 594.813C486.487 585.05 486.487 569.22 476.723 559.457L441.367 594.813ZM240.543 323.277C230.78 313.514 214.951 313.514 205.188 323.277C195.425 333.041 195.425 348.87 205.188 358.633L240.543 323.277ZM535.767 535.767C545.53 526.003 545.53 510.177 535.767 500.413C526.003 490.65 510.177 490.65 500.413 500.413L535.767 535.767ZM615.587 385.197C605.863 394.997 605.923 410.827 615.727 420.55C625.527 430.277 641.357 430.213 651.08 420.413L615.587 385.197ZM201.18 397.997L397.997 201.18L362.64 165.824L165.824 362.64L201.18 397.997ZM201.18 598.82C172.846 570.487 153.412 550.977 140.751 534.383C128.531 518.367 125 508.037 125 498.407H75C75 523.367 85.3863 544.247 101 564.713C116.174 584.6 138.49 606.84 165.824 634.177L201.18 598.82ZM165.824 362.64C138.49 389.977 116.174 412.217 101 432.103C85.3863 452.567 75 473.45 75 498.407H125C125 488.777 128.531 478.45 140.751 462.433C153.412 445.84 172.846 426.33 201.18 397.997L165.824 362.64ZM402.003 598.82C373.67 627.153 354.16 646.59 337.567 659.25C321.55 671.47 311.222 675 301.592 675V725C326.55 725 347.433 714.613 367.897 699C387.783 683.827 410.027 661.51 437.36 634.177L402.003 598.82ZM165.824 634.177C193.159 661.51 215.4 683.827 235.288 699C255.752 714.613 276.634 725 301.592 725V675C291.962 675 281.633 671.47 265.617 659.25C249.023 646.59 229.514 627.153 201.18 598.82L165.824 634.177ZM598.82 201.18C627.153 229.514 646.59 249.023 659.25 265.617C671.47 281.633 675 291.962 675 301.592H725C725 276.634 714.613 255.752 699 235.288C683.827 215.4 661.51 193.159 634.177 165.824L598.82 201.18ZM634.177 165.824C606.84 138.49 584.6 116.174 564.713 101C544.247 85.3863 523.367 75 498.407 75V125C508.037 125 518.367 128.531 534.383 140.751C550.977 153.412 570.487 172.846 598.82 201.18L634.177 165.824ZM397.997 201.18C426.33 172.846 445.84 153.412 462.433 140.751C478.45 128.531 488.777 125 498.407 125V75C473.45 75 452.567 85.3863 432.103 101C412.217 116.174 389.977 138.49 362.64 165.824L397.997 201.18ZM476.723 559.457L240.543 323.277L205.188 358.633L441.367 594.813L476.723 559.457ZM500.413 500.413L402.003 598.82L437.36 634.177L535.767 535.767L500.413 500.413ZM651.08 420.413C673.107 398.213 691.28 379.197 703.8 361.347C716.743 342.897 725 323.837 725 301.592H675C675 310.252 672.147 319.402 662.867 332.633C653.163 346.467 638.003 362.603 615.587 385.197L651.08 420.413Z" fill="url(#paint0_linear_901_95)"/>
<defs>
<linearGradient id="paint0_linear_901_95" x1="173.323" y1="632.489" x2="864.977" y2="-41.729" gradientUnits="userSpaceOnUse">
<stop stop-color="#FFD469"/>
<stop offset="1" stop-color="white"/>
</linearGradient>
</defs>
</svg>
