<svg width="55" height="50" viewBox="0 0 55 45" fill="none" xmlns="http://www.w3.org/2000/svg">
<path d="M42.5271 8.125L8.60834 21.3042L18.6688 25.4833C21.609 26.7037 23.9452 29.0406 25.1646 31.9813L29.3438 42.0396L42.5271 8.125ZM46.375 9.54583L33.1917 43.4646C32.3583 45.6104 29.9604 46.7083 27.8354 45.9229C27.3174 45.732 26.8446 45.436 26.4466 45.0534C26.0486 44.6708 25.7341 44.21 25.5229 43.7L21.3417 33.6375C20.5273 31.6784 18.9699 30.1218 17.0104 29.3083L6.95209 25.1292C4.86043 24.2604 3.90626 21.8458 4.82084 19.7333C5.04553 19.217 5.37012 18.7501 5.77593 18.3597C6.18174 17.9692 6.66076 17.6629 7.18543 17.4583L41.1042 4.275C41.841 3.97887 42.6486 3.90578 43.4267 4.06482C44.2047 4.22386 44.9189 4.60802 45.4804 5.16956C46.042 5.73109 46.4261 6.44526 46.5852 7.2233C46.7442 8.00135 46.6711 8.80898 46.375 9.54583Z" fill="black"/>
<path d="M42.5271 8.125L8.60834 21.3042L18.6688 25.4833C21.609 26.7037 23.9452 29.0406 25.1646 31.9813L29.3438 42.0396L42.5271 8.125ZM46.375 9.54583L33.1917 43.4646C32.3583 45.6104 29.9604 46.7083 27.8354 45.9229C27.3174 45.732 26.8446 45.436 26.4466 45.0534C26.0486 44.6708 25.7341 44.21 25.5229 43.7L21.3417 33.6375C20.5273 31.6784 18.9699 30.1218 17.0104 29.3083L6.95209 25.1292C4.86043 24.2604 3.90626 21.8458 4.82084 19.7333C5.04553 19.217 5.37012 18.7501 5.77593 18.3597C6.18174 17.9692 6.66076 17.6629 7.18543 17.4583L41.1042 4.275C41.841 3.97887 42.6486 3.90578 43.4267 4.06482C44.2047 4.22386 44.9189 4.60802 45.4804 5.16956C46.042 5.73109 46.4261 6.44526 46.5852 7.2233C46.7442 8.00135 46.6711 8.80898 46.375 9.54583Z" fill="url(#paint0_linear_15_133)"/>
<defs>
<linearGradient id="paint0_linear_15_133" x1="10.8561" y1="40.1715" x2="55.754" y2="-3.59427" gradientUnits="userSpaceOnUse">
<stop stop-color="#FFD469"/>
<stop offset="1" stop-color="white"/>
</linearGradient>
</defs>
</svg>
