<svg width="61" height="61" viewBox="0 0 61 58" fill="none" xmlns="http://www.w3.org/2000/svg">
<path d="M58.4584 33.0417V27.9584H50.6554C50.1956 24.345 48.7735 20.9216 46.5379 18.0459L52.1042 12.5304L48.4696 8.89585L42.9542 14.4621C40.0785 12.2265 36.655 10.8045 33.0417 10.3446V2.54169H27.9584V10.3446C24.3492 10.8021 20.9179 12.2254 18.0459 14.4621L12.5304 8.89585L8.89585 12.5304L14.4621 18.0459C12.2265 20.9216 10.8045 24.345 10.3446 27.9584H2.54169V33.0417H10.3446C10.8021 36.6509 12.2254 40.0821 14.4621 42.9542L8.89585 48.4696L12.5304 52.1042L18.0459 46.5379C20.9179 48.7746 24.3492 50.1979 27.9584 50.6554V58.4584H33.0417V50.6554C36.6509 50.1979 40.0821 48.7746 42.9542 46.5379L48.4696 52.1042L52.1042 48.4696L46.5379 42.9542C48.7735 40.0785 50.1956 36.655 50.6554 33.0417H58.4584ZM30.5 20.3334C27.8037 20.3334 25.2177 21.4045 23.3111 23.3111C21.4045 25.2177 20.3334 27.8037 20.3334 30.5H15.25C15.25 26.4555 16.8567 22.5766 19.7166 19.7166C22.5766 16.8567 26.4555 15.25 30.5 15.25V20.3334Z" fill="url(#paint0_linear_15_83)"/>
<defs>
<linearGradient id="paint0_linear_15_83" x1="11" y1="50.5" x2="70.5" y2="-7.5" gradientUnits="userSpaceOnUse">
<stop stop-color="#FFD469"/>
<stop offset="1" stop-color="white"/>
</linearGradient>
</defs>
</svg>
