<svg width="715" height="699" viewBox="0 0 715 699" fill="none" xmlns="http://www.w3.org/2000/svg">
<path d="M349.584 0.495361C320.459 4.28286 293.839 37.3297 291.705 80.9485V80.9797C291.615 82.8329 291.553 84.6985 291.553 86.5891C291.553 112.155 300.394 134.756 313.337 150.367L329.161 169.45L304.798 174.033C288.001 177.197 275.701 186.067 265.153 200.561C261.583 205.467 258.303 211.041 255.294 217.155C165.387 207.092 102.309 184.248 102.309 157.855C102.309 130.725 168.945 107.881 262.856 98.5266C262.523 94.6047 262.351 90.625 262.351 86.5954V86.5922C262.351 85.2797 262.389 83.9766 262.425 82.6704C111.753 93.2485 1.02168 128.217 1.01856 169.717C1.01543 209.295 101.74 242.936 241.759 255.139C241.462 256.298 241.144 257.428 240.859 258.602C237.172 273.789 234.531 290.195 232.628 307.086C232.612 307.086 232.597 307.086 232.581 307.089C231.928 312.797 231.362 318.558 230.87 324.348L230.948 324.341C228.892 348.992 228.18 374.153 227.99 397.7H284.075L287.379 442.075C180.754 434.272 102.311 409.256 102.311 379.82C102.311 359.128 141.108 340.93 201.17 329.305C201.639 322.967 202.201 316.625 202.851 310.302C83.4451 324.916 1.02324 355.877 1.02012 391.686C1.01699 435.702 125.567 472.378 290.236 480.386L299.517 605.027C315.923 609.164 338.33 611.53 360.481 611.383C382.028 611.239 403.036 608.711 417.434 605.133L425.658 480.373C590.201 472.342 714.619 435.678 714.619 391.686C714.619 355.728 631.5 324.663 511.29 310.123C511.765 316.405 512.161 322.697 512.47 328.983C573.225 340.592 612.415 358.936 612.415 379.82C612.415 409.258 534.597 434.273 428.184 442.077L431.106 397.698H484.512C484.494 374.084 484.314 348.839 482.898 324.114C482.914 324.114 482.929 324.117 482.948 324.12C482.614 318.359 482.211 312.633 481.726 306.955L481.695 306.952C480.226 289.519 477.997 272.602 474.592 257.003C474.451 256.37 474.304 255.748 474.162 255.119C614.034 242.891 714.62 209.269 714.62 169.719C714.62 127.864 602.001 92.6376 449.354 82.3954C449.394 83.7938 449.437 85.1891 449.437 86.5954C449.437 90.5016 449.275 94.361 448.962 98.1688C544.572 107.288 612.415 130.372 612.415 157.856C612.415 184.114 550.489 206.848 461.597 216.994C458.456 210.302 454.94 204.259 451.031 199.017C440.359 184.694 427.495 175.877 408.625 172.952L383.761 169.092L399.444 149.42C410.269 135.842 418.056 117.053 419.845 95.8766H419.848C420.103 92.8297 420.239 89.736 420.239 86.5985C420.239 85.3954 420.204 84.2047 420.164 83.0204C420.14 82.2704 420.112 81.5235 420.075 80.7797H420.072C417.759 34.3032 388.029 0.623487 355.89 0.623487C351.94 0.623487 349.694 0.48755 349.594 0.498488H349.589L349.584 0.495361ZM263.969 520.972C112.234 531.37 0.573242 566.456 0.573242 608.159C0.573242 658.053 160.328 698.495 357.397 698.495C554.465 698.495 714.219 658.055 714.219 608.161C714.219 566.586 603.25 531.592 452.234 521.073L451.211 536.589C545.528 546.05 612.264 569.333 612.264 596.58C612.264 632.22 498.151 661.108 357.389 661.108C216.626 661.108 102.514 632.217 102.514 596.581C102.514 569.186 169.983 545.797 265.123 536.436L263.967 520.975L263.969 520.972Z" fill="url(#paint0_linear_926_46)"/>
<defs>
<linearGradient id="paint0_linear_926_46" x1="108.585" y1="599.152" x2="851.554" y2="-141.737" gradientUnits="userSpaceOnUse">
<stop stop-color="#FFD469"/>
<stop offset="1" stop-color="white"/>
</linearGradient>
</defs>
</svg>
