<svg width="470" height="810" viewBox="0 0 470 810" fill="none" xmlns="http://www.w3.org/2000/svg">
<path d="M462.484 12.2636C459.907 7.77012 455.124 5 449.944 5H151.916C145.713 5 140.2 8.95759 138.216 14.8352L10.4898 393.281C9.00159 397.694 9.73027 402.554 12.4445 406.336C15.1606 410.118 19.5327 412.362 24.19 412.362H145.273L5.91533 785.484C3.45171 792.081 6.10038 799.494 12.1881 803.038C14.4628 804.36 16.9688 805 19.4536 805C23.6175 805 27.7177 803.203 30.5495 799.82L418.459 336.225C422.062 331.919 422.846 325.916 420.47 320.828C418.095 315.741 412.986 312.489 407.371 312.489H295.382L462.426 26.7561C465.04 22.2839 465.063 16.7571 462.484 12.2636ZM257.697 319.647C255.084 324.119 255.06 329.646 257.64 334.139C260.217 338.633 265 341.403 270.179 341.403H376.418L62.5361 716.532L179.652 402.962C181.31 398.525 180.687 393.555 177.985 389.661C175.284 385.769 170.846 383.446 166.108 383.446H44.3288L162.295 33.9157H424.743L257.697 319.647Z" fill="#FFB700" stroke="black" stroke-width="9.63855"/>
<rect x="157" y="27" width="209" height="118" fill="#FFB700"/>
<rect x="144.771" y="78.4702" width="223.999" height="118" transform="rotate(27.513 144.771 78.4702)" fill="#FFB700"/>
<rect x="110.483" y="173.236" width="210.498" height="113.612" transform="rotate(27.513 110.483 173.236)" fill="#FFB700"/>
<rect x="262.455" y="424.374" width="179.873" height="93.1664" transform="rotate(115 262.455 424.374)" fill="#FFB700"/>
<rect x="311.974" y="401.994" width="279.788" height="83.8544" transform="rotate(124 311.974 401.994)" fill="#FFB700"/>
<rect x="390.779" y="355.748" width="247.701" height="57.9085" transform="rotate(132 390.779 355.748)" fill="#FFB700"/>
<rect x="399.323" y="344.288" width="42.8617" height="31.8151" transform="rotate(132 399.323 344.288)" fill="#FFB700"/>
<rect x="162.133" y="622.567" width="147.217" height="22.3721" transform="rotate(132 162.133 622.567)" fill="#FFB700"/>
<rect x="170.293" y="591.632" width="91.24" height="48.7682" transform="rotate(132 170.293 591.632)" fill="#FFB700"/>
<rect x="125.307" y="661.061" width="68.8432" height="41.4005" transform="rotate(132 125.307 661.061)" fill="#D9D9D9"/>
<rect x="125.307" y="661.061" width="68.8432" height="41.4005" transform="rotate(132 125.307 661.061)" fill="#FFB700"/>
<rect x="250.832" y="388.702" width="68.8432" height="41.4005" transform="rotate(132 250.832 388.702)" fill="#FFB700"/>
<rect x="150.832" y="618.702" width="68.8432" height="41.4005" transform="rotate(132 150.832 618.702)" fill="#FFB700"/>
<rect x="57.9229" y="317" width="298.486" height="72.1633" transform="rotate(3.11628 57.9229 317)" fill="#FFB700"/>
<rect x="64.4824" y="262.248" width="99.7268" height="72.1633" transform="rotate(3.11628 64.4824 262.248)" fill="#FFB700"/>
<rect x="64.4824" y="262.248" width="99.7268" height="72.1633" transform="rotate(3.11628 64.4824 262.248)" fill="#FFB700"/>
<rect x="40.9229" y="322" width="99.7268" height="72.1633" transform="rotate(3.11628 40.9229 322)" fill="#FFB700"/>
<rect x="255.923" y="111" width="99.7268" height="72.1633" transform="rotate(3.11628 255.923 111)" fill="#FFB700"/>
<rect x="265.923" y="106" width="99.7268" height="72.1633" transform="rotate(3.11628 265.923 106)" fill="#FFB700"/>
<rect x="308.925" y="21" width="99.2226" height="90.5845" transform="rotate(3.11628 308.925 21)" fill="#FFB700"/>
<rect x="290.925" y="54" width="99.2226" height="90.5845" transform="rotate(3.11628 290.925 54)" fill="#FFB700"/>
<rect x="369.548" y="18.1108" width="49.9412" height="65.2707" transform="rotate(3.11628 369.548 18.1108)" fill="#FFB700"/>
<rect x="376.548" y="18" width="64.4725" height="36.6761" transform="rotate(3.11628 376.548 18)" fill="#FFB700"/>
<rect x="137.567" y="33" width="64.4725" height="84.0106" transform="rotate(3.11628 137.567 33)" fill="#FFB700"/>
</svg>
